<svg
  xmlns="http://www.w3.org/2000/svg"
  enable-background="new 0 0 24 24"
  viewBox="0 0 24 24"
>
  <path
    d="M23.3704,15.7134v0.08c-0.01,0.54-0.18,1.1201-0.5,1.77c-0.46,0.91-1.24,1.95-2.19,2.91c-0.78,0.77-2.76,2.56-4.57,2.7
				c-0.05,0.01-0.13,0.01-0.22,0.01c-0.62,0-1.13-0.21-1.54-0.62c-0.14-0.14-0.31-0.35-0.44-0.64c-3.2,0.36-5.34-0.77-6.56-1.68
				c-1.03-0.7-2.8-2.21-2.9-4.38c-0.02-0.49,0.05-0.98,0.2-1.46c-0.02,0.01-0.04,0.01-0.06,0.01c-0.22,0-0.4301-0.05-0.63-0.14
				c-2.01-0.93-3.36-2.87-3.52-5.08c-0.11-1.61,0.41-3.18,1.47-4.41c1.0601-1.22,2.54-1.96,4.16-2.08c2.79-0.2,5.32,1.51,6.19,4.15
				c0.12,0.35,0.1,0.73-0.05,1.0699c1.24-0.88,2.71-1.63,4.11-1.63c1.04,0,2.15,0.4,3.2,1.16c2.03,1.45,3.11,3.88,2.88,6.41
				c0.15,0.1,0.27,0.2,0.35,0.29C23.1604,14.5533,23.3704,15.0934,23.3704,15.7134z"
  />
  <path
    fill="#e2e2ed"
    d="M19.85,14.0448c-0.23,0.1-0.47,0.23-0.72,0.38c-0.12,0.07-0.25,0.15-0.37,0.23
			c-0.13,0.09-0.26,0.18-0.38,0.27c-0.13,0.09-0.25,0.18-0.38,0.28c-0.39,0.3101-0.78,0.66-1.16,1.04
			c-0.44,0.44-0.83,0.89-1.17,1.34c-0.08,0.11-0.16,0.22-0.24,0.33c-0.24,0.33-0.44,0.66-0.61,0.98c-0.26,0.07-0.53,0.13-0.81,0.17
			c-2.42,0.34-4.09-0.42-5.06-1.13c-0.03-0.03-0.06-0.05-0.09-0.07c-0.54-0.36-1.8-1.32-1.85-2.45c-0.03-0.7,0.4-1.44,1.28-2.22
			c0.85,0.62,1.72,1.22,2.62,1.78c0.13,0.08,0.32,0.07,0.44-0.05c0.07-0.07,0.11-0.16,0.11-0.25s-0.04-0.19-0.11-0.26
			c-0.91-0.94-1.78-1.93-2.63-2.94c-0.08-0.1-0.16-0.2-0.25-0.3l-0.79-0.92L6,8.2948c0-0.06,0.04-0.1,0.1-0.1l0.17,0.02l0.9,0.44
			c0.48,0.24,1.38,0.92,2.13,1.5v0.01c0.11,0.08,0.21,0.17,0.31,0.24c0.28,0.19,0.59,0.42,0.86,0.64c0.11,0.09,0.22,0.17,0.33,0.27
			c0.21,0.17,0.41,0.35,0.61,0.53c0.61,0.55,1.17,1.15,1.6201,1.84v0.01c0.06,0.08,0.16,0.12,0.2599,0.09
			c0.13-0.03,0.2-0.16,0.16-0.28c-0.23-0.86-0.63-1.67-1.07-2.43c-0.05-0.08-0.1-0.16-0.16-0.2401c0.28-0.25,0.57-0.5,0.88-0.74
			c0.95,0.25,1.95,0.7,2.52,1.47l0.02,0.02c0.09,0.13,0.26,0.1801,0.41,0.12c0.18-0.0699,0.28-0.27,0.21-0.45
			c-0.24-0.65-0.69-1.19-1.17-1.64c-0.2-0.18-0.4-0.34-0.61-0.49c0.14-0.08,0.27-0.15,0.41-0.22c0.79,0.26,1.55,0.65,2.02,1.28
			l0.02,0.02c0.1,0.14,0.3,0.21,0.47,0.14c0.22-0.08,0.34-0.32,0.2599-0.54c-0.18-0.48-0.47-0.91-0.8-1.28
			c0.18,0.05,0.36,0.11,0.56,0.21c0.23,0.1,0.47,0.24,0.71,0.41C19.65,10.2348,20.31,12.1548,19.85,14.0448z"
  />
  <path
    fill="#e2e2ed"
    d="M10.47,11.0448c-0.27-0.22-0.58-0.45-0.86-0.64c0.19,0.15,0.36,0.29,0.51,0.41l0.47,0.38
			c0.0699,0.05,0.14,0.09,0.21,0.12C10.69,11.2148,10.58,11.1348,10.47,11.0448z"
  />
  <path
    fill="#685289"
    d="M4.6465,13.5721c-0.1396,0-0.2822-0.0293-0.418-0.0923c-1.8447-0.8511-3.0801-2.6357-3.2246-4.6563
			C0.8975,7.3392,1.375,5.9022,2.3496,4.7767c0.9746-1.126,2.3291-1.8047,3.8135-1.9111c2.5566-0.187,4.8848,1.3848,5.6846,3.8096
			c0.1729,0.5244-0.1123,1.0898-0.6367,1.2627c-0.5303,0.1719-1.0908-0.1118-1.2637-0.6367
			c-0.5117-1.5547-2.0107-2.561-3.6416-2.4404C5.3545,4.929,4.4873,5.3641,3.8613,6.0858C3.2363,6.8074,2.9297,7.7288,2.998,8.68
			c0.0928,1.2944,0.8857,2.438,2.0684,2.9844c0.502,0.2314,0.7207,0.8257,0.4893,1.3271
			C5.3867,13.3568,5.0244,13.5721,4.6465,13.5721z"
  />
  <path
    fill="#8871aa"
    d="M22.46,14.1648c-0.11-0.11-0.29-0.25-0.54-0.35c0.35-2.46-0.63-4.87-2.63-6.29
		c-0.97-0.7-1.98-1.07-2.91-1.07c-1.08,0-2.23,0.51-3.25,1.16c-0.01,0-0.01,0-0.01,0c-0.75,0.47-1.43,1.02-1.95,1.48
		c-0.13-0.11-0.27-0.21-0.4-0.32c-0.01-0.02-0.03-0.04-0.05-0.04c-0.06-0.04-0.11-0.09-0.17-0.13c-0.97-0.77-1.86-1.43-2.49-1.74
		l-0.88-0.43c-0.29-0.16-0.62-0.24-0.96-0.24H6.1c-1.16,0-2.1,0.94-2.1,2.1c0,0.49,0.16,0.94,0.49,1.35l2.09,2.41
		c-1.09,1.1-1.62,2.25-1.57,3.45c0.09,1.94,1.7,3.32,2.69,3.99l0.01,0.01c1.06,0.79,2.75,1.65,5.11,1.65c0.46,0,0.96-0.04,1.48-0.11
		c0.01,0,0.01,0,0.02,0c0.08,0.4,0.28,0.67,0.44,0.83c0.33,0.33,0.74,0.47,1.19,0.47c0.06,0,0.12,0,0.18-0.01
		c0.95-0.0699,2.08-0.71,3.11-1.54c0.4-0.32,0.78-0.66,1.14-1.01c0.91-0.92,1.66-1.91,2.1-2.79c0.32-0.63,0.44-1.14,0.45-1.56
		C22.95,14.8248,22.72,14.4248,22.46,14.1648z M19.85,14.0448c-0.16,0.07-0.3199,0.15-0.48,0.24c-0.08,0.04-0.16,0.09-0.24,0.14
		c-0.12,0.07-0.25,0.15-0.37,0.23c-0.13,0.09-0.26,0.18-0.38,0.27c-0.13,0.09-0.25,0.18-0.38,0.28c-0.39,0.3101-0.78,0.66-1.16,1.04
		c-0.44,0.44-0.83,0.89-1.17,1.34c-0.08,0.11-0.16,0.22-0.24,0.33c-0.24,0.33-0.44,0.66-0.61,0.98c-0.26,0.07-0.53,0.13-0.81,0.17
		c-2.42,0.34-4.09-0.42-5.06-1.13c-0.03-0.03-0.06-0.05-0.09-0.07c-0.54-0.36-1.8-1.32-1.85-2.45c-0.03-0.7,0.4-1.44,1.28-2.22
		c0.85,0.62,1.72,1.22,2.62,1.78c0.13,0.08,0.32,0.07,0.44-0.05c0.07-0.07,0.11-0.16,0.11-0.25s-0.04-0.19-0.11-0.26
		c-0.91-0.94-1.78-1.93-2.63-2.94c-0.08-0.1-0.16-0.2-0.25-0.3c-0.21-0.26-0.42-0.51-0.6299-0.77l-0.01-0.01
		c-0.04-0.05-0.09-0.1-0.15-0.14L6,8.2948c0-0.06,0.04-0.1,0.1-0.1l0.17,0.02l0.9,0.44c0.48,0.24,1.38,0.92,2.13,1.5v0.01
		c0.11,0.08,0.21,0.17,0.31,0.24c0.28,0.19,0.59,0.42,0.86,0.64c0.11,0.09,0.22,0.17,0.33,0.27c0.21,0.17,0.41,0.35,0.61,0.53
		c0.61,0.55,1.17,1.15,1.6201,1.84v0.01c0.06,0.08,0.16,0.12,0.2599,0.09c0.13-0.03,0.2-0.16,0.16-0.28
		c-0.23-0.86-0.63-1.67-1.07-2.43c-0.05-0.08-0.1-0.16-0.16-0.2401c0.28-0.25,0.57-0.5,0.88-0.74c0.95,0.25,1.95,0.7,2.52,1.47
		l0.02,0.02c0.09,0.13,0.26,0.1801,0.41,0.12c0.18-0.0699,0.28-0.27,0.21-0.45c-0.24-0.65-0.69-1.19-1.17-1.64
		c-0.2-0.18-0.4-0.34-0.61-0.49c0.14-0.08,0.27-0.15,0.41-0.22c0.79,0.26,1.55,0.65,2.02,1.28l0.02,0.02
		c0.1,0.14,0.3,0.21,0.47,0.14c0.05-0.02,0.1-0.05,0.13-0.08c0.14-0.11,0.1899-0.29,0.1299-0.46c-0.18-0.48-0.47-0.91-0.8-1.28
		c0.18,0.04,0.37,0.11,0.56,0.21c0.23,0.1,0.47,0.24,0.71,0.41C19.65,10.2348,20.31,12.1548,19.85,14.0448z"
  />
  <path
    d="M22.46,14.1648c-0.11-0.11-0.29-0.25-0.54-0.35c0.35-2.46-0.63-4.87-2.63-6.29c-0.97-0.7-1.98-1.07-2.91-1.07
		c-1.08,0-2.23,0.51-3.25,1.16c0.19,0.04,2.61,0.6,4.4,2.65c0.86,0.97,1.58,2.27,1.84,4.02c0.15,0.92,0.17,1.96,0.02,3.14
		c-0.0002,0.0015-0.0003,0.0027-0.0005,0.0042c-2.424,1.9507-3.0997,4.1719-3.2595,4.9058c1.32-0.1,2.98-1.29,4.25-2.55
		c0.91-0.92,1.66-1.91,2.1-2.79c0.32-0.63,0.44-1.14,0.45-1.56C22.95,14.8248,22.72,14.4248,22.46,14.1648z"
    opacity=".1"
  />
  <path
    fill="#fff"
    d="M10.0893,16.322c0.2826,0.1592,0.6353,0.3248,0.9561,0.4492c0.33,0.1228,0.659,0.2257,0.9887,0.2627
		c0.3277,0.0654,0.6492,0.0415,0.9661-0.0056c0.3213-0.0379,0.6268-0.1695,0.9515-0.3001l0.0693-0.0279
		c0.2554-0.1028,0.5457,0.021,0.6485,0.2764c0.0842,0.2094,0.0157,0.4425-0.1523,0.5762c-0.358,0.2846-0.7663,0.5529-1.2402,0.6664
		c-0.4635,0.1273-0.9594,0.1556-1.4255,0.0887c-0.4645-0.0809-0.9096-0.218-1.3108-0.4266
		c-0.4082-0.2108-0.7539-0.4547-1.0988-0.7972c-0.1959-0.1946-0.197-0.5111-0.0024-0.707c0.162-0.1631,0.4086-0.1911,0.5997-0.0836
		L10.0893,16.322z"
    opacity=".7"
  />
</svg>
